<?xml version="1.0" encoding="UTF-8"?>

<svg
   xmlns="http://www.w3.org/2000/svg"
   width="386mm"
   height="92mm"
   viewBox="0 0 1367.7166 325.98416">
  <g transform="translate(0,-726.37806)">
    <path
       style="opacity:1;fill:none;fill-opacity:1;stroke:#000000;stroke-width:20;stroke-miterlimit:4;stroke-dasharray:none;stroke-opacity:1"
       d="m 136.57145,754.36218 116.29482,201.42856 -232.589663,0 z" />
    <path
       style="opacity:1;fill:none;fill-opacity:1;stroke:#000000;stroke-width:20;stroke-miterlimit:4;stroke-dasharray:none;stroke-opacity:1"
       d="m 234.57141,754.64789 116.29483,201.42856 -232.58966,-10e-6 z" />
    <path
       style="opacity:1;fill:none;fill-opacity:1;stroke:#000000;stroke-width:20;stroke-miterlimit:4;stroke-dasharray:none;stroke-opacity:1"
       d="m 186,838.64795 116.29483,201.42855 -232.589664,0 z" />
    <path d="m 468.40387,814.50061 0,184.43298 -13.45825,0 0,-184.43298 -56.85425,0 0,-12.49695 127.16675,0 0,12.49695 -56.85425,0 z" />
    <path d="m 667.70331,998.93359 -26.22986,-57.67822 q -8.10242,-17.85278 -16.20483,-23.89526 -8.10242,-6.17981 -20.32471,-6.17981 l -24.44458,0 0,87.75329 -13.59558,0 0,-196.92993 54.65698,0 q 26.09253,0 40.92407,14.1449 14.96887,14.00757 14.96887,37.07886 0,21.28601 -12.22229,35.56823 -12.22229,14.28223 -34.19494,18.4021 l 0,0.54932 q 11.67297,4.66919 22.79663,28.42712 l 29.2511,62.7594 -15.38086,0 z m -87.20398,-184.43298 0,84.32007 33.92029,0 q 22.52197,0 35.70556,-11.8103 13.32093,-11.81031 13.32093,-32.40967 0,-18.81409 -11.94764,-29.38843 -11.94763,-10.71167 -34.19494,-10.71167 l -36.8042,0 z" />
    <path d="m 730.90961,998.93359 0,-196.92993 13.59558,0 0,196.92993 -13.59558,0 z" />
    <path d="M 942.43134,998.93359 825.15228,839.76917 q -3.57055,-4.80652 -6.31714,-9.61304 l -1.78527,-2.74658 -0.54932,0 q 0.27466,3.57055 0.27466,8.65173 l 0,162.87231 -13.59558,0 0,-196.92993 10.43701,0 116.45508,157.79114 q 3.84521,5.21851 8.37707,12.63428 l 0.68665,0 q -0.68665,-9.61304 -0.68665,-16.4795 l 0,-153.94592 13.59558,0 0,196.92993 -9.61303,0 z" />
    <path d="m 1010.5815,998.93359 0,-196.92993 13.5956,0 0,196.92993 -13.5956,0 z" />
    <path d="m 1136.2725,814.50061 0,184.43298 -13.4582,0 0,-184.43298 -56.8543,0 0,-12.49695 127.1668,0 0,12.49695 -56.8543,0 z" />
    <path d="m 1297.6691,924.08923 0,74.84436 -13.4582,0 0,-74.5697 -60.2875,-122.36023 15.2435,0 45.868,94.89441 q 2.4719,4.94385 6.1798,14.55689 l 0.5493,0 q 1.9226,-5.08118 6.7291,-14.28223 l 48.0652,-95.16907 14.6942,0 -63.5834,122.08557 z" />
  </g>
</svg>
